<svg viewBox="0 0 299.87 108.58" xmlns="http://www.w3.org/2000/svg"><g transform="translate(-54.84 -54.46)"><path d="m145.11 141.55-19.48-32.8 19.48-32.81 9.41 32.81zm-43.42-3.15-24.5-24.33h39l19.47 32.81zm0-59.32 33.93-8.48-19.47 32.81h-39zm49.85-24.63-44.35 11.55-6.56 11.26-13.32-.1-32.47 31.59 32.46 31.57 13.31-.1 6.58 11.26 44.35 11.52 11.88-43.11-6.75-11.17 6.75-11.17z"/><path d="m252.14 86.45c-5.93 0-9.91 2.46-12.87 7.11h-.27v-5.93h-10.35v43.43h10.63v-24.63c0-5.93 3.72-10 8.81-10 4.83 0 8.42 2.86 8.42 8v26.67h10.63v-28.4c0-9.48-6-16.25-15-16.25"/><path d="m212.48 112.67c0 5.76-3.3 9.82-8.72 9.82-4.91 0-8-2.79-8-7.87v-27h-10.62v29c0 9.48 5.42 15.66 15.07 15.66 6.1 0 9.48-2.29 12.44-6.26h.25v4.98h10.22v-43.39h-10.64z"/></g><path d="m217.85 33.18h10.63v43.43h-10.63z"/><path d="m217.85 19.63h10.63v8.73h-10.63z"/><path d="m343.38 87.63-6.31 19.56c-1.35 4-2.54 9.48-2.54 9.48h-.27s-1.44-5.5-2.79-9.48l-7.13-19.56h-11.34l11.68 30.9c2.45 6.6 3.3 9.4 3.3 11.77 0 3.56-1.86 5.93-6.43 5.93h-4.06v9.06h6.77c8.8 0 11.86-3.47 15.16-13.12l15.31-44.53z" transform="translate(-54.84 -54.46)"/><path d="m303.12 118.28v-23h6.77v-7.65h-6.77v-13.54h-10.55v13.54h-6v7.62h6v25.48c0 8.21 6.18 10.41 11.77 10.41a55.37 55.37 0 0 0 5.81-.17v-8.4h-2.71c-2.54 0-4.32-1.1-4.32-4.32" transform="translate(-54.84 -54.46)"/></svg>